<?xml version="1.0" encoding="utf-8"?>
<!-- Generator: Adobe Illustrator 22.0.1, SVG Export Plug-In . SVG Version: 6.00 Build 0)  -->
<svg version="1.1" id="Слой_1" xmlns="http://www.w3.org/2000/svg" xmlns:xlink="http://www.w3.org/1999/xlink" x="0px" y="0px"
	 viewBox="0 0 453.3 243.9" style="enable-background:new 0 0 453.3 243.9;" xml:space="preserve">
<style type="text/css">
	.st0{fill:#262421;}
	.st1{fill:#E31F24;}
</style>
<path class="st0" d="M161.3,169.4c0,7.8,0.3,15.4,1.3,20h-23.2l-1.5-8.3h-0.5c-5.4,6.6-13.9,10.1-23.7,10.1
	C96.9,191.2,87,179,87,165.8c0-21.5,19.3-31.6,48.5-31.6v-1c0-4.4-2.4-10.7-15.1-10.7c-8.4,0-17.4,2.9-22.8,6.1l-4.7-16.4
	c5.8-3.2,17.1-7.5,32.1-7.5c27.6,0,36.2,16.2,36.2,35.7L161.3,169.4L161.3,169.4z M136.4,150.3c-13.5,0-24,3.2-24,13
	c0,6.6,4.4,9.8,10.1,9.8c6.2,0,11.7-4.2,13.4-9.5c0.3-1.4,0.5-2.9,0.5-4.4V150.3z"/>
<path class="st0" d="M172.9,133.9c0-12.2-0.2-20.1-0.7-27.2h22l1,15.4h0.7c4.2-12.2,14.2-17.3,22.3-17.3c2.4,0,3.5,0.2,5.4,0.5v24.2
	c-2.2-0.3-4.2-0.7-7.1-0.7c-9.5,0-15.9,4.9-17.6,13c-0.3,1.7-0.5,3.5-0.5,5.8v41.8h-25.7L172.9,133.9z"/>
<path class="st0" d="M293.3,187.3c-4.6,2.2-13.2,3.9-23,3.9c-26.7,0-43.8-16.4-43.8-42.4c0-24.2,16.6-44,47.3-44
	c6.8,0,14.2,1.2,19.6,3.2l-4.1,19.1c-3.1-1.4-7.6-2.5-14.4-2.5c-13.5,0-22.3,9.6-22.2,23.1c0,15.2,10.1,23.3,22.7,23.3
	c6.1,0,10.8-1,14.7-2.7L293.3,187.3z"/>
<path class="st0" d="M389.9,167c4.7,2.9,14.5,6.1,22.2,6.1c7.8,0,11-2.5,11-6.8c0-4.4-2.5-6.4-12-9.6c-17.3-5.6-23.8-15-23.7-24.7
	c0-15.6,13.2-27.2,33.6-27.2c9.6,0,18.1,2.4,23.1,4.9l-4.4,17.6c-3.7-1.9-11-4.6-17.9-4.6c-6.3,0-9.8,2.5-9.8,6.6
	c0,4.1,3.2,6.1,13.3,9.6c15.7,5.3,22.1,13.4,22.3,25.4c0,15.6-12,26.9-35.7,26.9c-10.8,0-20.5-2.5-26.7-5.9L389.9,167z"/>
<path class="st1" d="M196.6,20.1c-14.8-5.2-30.6-8-47.2-8C70,12.1,5.7,76.4,5.7,155.8c0,19.5,3.9,38,10.9,54.9h42.7
	c-9.8-16-15.4-34.8-15.4-54.9c0-58.3,47.3-105.6,105.6-105.6c17,0,33,4,47.2,11.1L196.6,20.1L196.6,20.1z"/>
<path class="st0" d="M378.6,155.3c0,12.3-10.3,35.9-39.3,35.9c-28.3-0.1-39-23.6-39-36v-48.5H326v48.6c0,21.4,26.9,21.2,26.9,0
	v-48.6h25.7V155.3z"/>
</svg>
