<?xml version="1.0" encoding="utf-8"?>
<!-- Generator: Adobe Illustrator 22.0.1, SVG Export Plug-In . SVG Version: 6.00 Build 0)  -->
<svg version="1.1" id="Слой_1" xmlns="http://www.w3.org/2000/svg" xmlns:xlink="http://www.w3.org/1999/xlink" x="0px" y="0px"
	 viewBox="0 0 453.3 243.9" style="enable-background:new 0 0 453.3 243.9;" xml:space="preserve">
<style type="text/css">
	.st0{fill:#262421;}
	.st1{fill:#E31F24;}
	.st2{fill:#2B2929;}
</style>
<path class="st0" d="M160.7,157.4c0,7.8,0.3,15.4,1.3,20h-23.2l-1.5-8.3h-0.5c-5.4,6.6-13.9,10.1-23.7,10.1
	c-16.8,0-26.7-12.2-26.7-25.4c0-21.5,19.3-31.6,48.5-31.6v-1c0-4.4-2.4-10.7-15.1-10.7c-8.4,0-17.4,2.9-22.8,6.1l-4.7-16.4
	c5.8-3.2,17.1-7.5,32.1-7.5c27.6,0,36.2,16.2,36.2,35.7V157.4z M135.8,138.3c-13.5,0-24,3.2-24,13c0,6.6,4.4,9.8,10.1,9.8
	c6.2,0,11.7-4.2,13.4-9.5c0.3-1.4,0.5-2.9,0.5-4.4V138.3z"/>
<path class="st0" d="M172.3,121.9c0-12.2-0.2-20.1-0.7-27.2h22l1,15.4h0.7c4.2-12.2,14.2-17.3,22.3-17.3c2.4,0,3.5,0.2,5.4,0.5v24.2
	c-2.2-0.3-4.2-0.7-7.1-0.7c-9.5,0-15.9,4.9-17.6,13c-0.3,1.7-0.5,3.5-0.5,5.8v41.8h-25.7L172.3,121.9z"/>
<path class="st0" d="M292.7,175.3c-4.6,2.2-13.2,3.9-23,3.9c-26.7,0-43.8-16.4-43.8-42.4c0-24.2,16.6-44,47.3-44
	c6.8,0,14.2,1.2,19.6,3.2l-4.1,19.1c-3.1-1.4-7.6-2.5-14.4-2.5c-13.5,0-22.3,9.6-22.2,23.1c0,15.2,10.1,23.3,22.7,23.3
	c6.1,0,10.8-1,14.7-2.7L292.7,175.3z"/>
<path class="st0" d="M389.3,155c4.7,2.9,14.5,6.1,22.2,6.1c7.8,0,11-2.5,11-6.8c0-4.4-2.5-6.4-12-9.6c-17.3-5.6-23.8-15-23.7-24.7
	c0-15.6,13.2-27.2,33.6-27.2c9.6,0,18.1,2.4,23.1,4.9l-4.4,17.6c-3.7-1.9-11-4.6-17.9-4.6c-6.3,0-9.8,2.5-9.8,6.6s3.2,6.1,13.3,9.6
	c15.7,5.3,22.1,13.4,22.3,25.4c0,15.6-12,26.9-35.7,26.9c-10.8,0-20.5-2.5-26.7-5.9L389.3,155z"/>
<path class="st1" d="M196,8.1c-14.8-5.2-30.6-8-47.2-8C69.4,0.1,5.1,64.4,5.1,143.8c0,19.5,3.9,38,10.9,54.9h42.7
	c-9.8-16-15.4-34.8-15.4-54.9c0-58.3,47.3-105.6,105.6-105.6c17,0,33,4,47.2,11.1V8.1z"/>
<path class="st0" d="M378,143.3c0,12.3-10.3,35.9-39.3,35.9c-28.3-0.1-39-23.6-39-36V94.7h25.7v48.6c0,21.4,26.9,21.2,26.9,0V94.7
	H378V143.3z"/>
<path class="st2" d="M37.1,237.1h-2.7v-16.5L25,237.1h-2.8v-20.8H25v16.2l9.2-16.2h2.9V237.1z M64.9,237.1h-3.4l-6.9-9.6h-1.3v9.6
	h-2.7v-9.6h-1.4l-6.9,9.6H39l7.8-10.7c-0.6-0.4-1.1-0.9-1.6-1.5c-0.5-0.6-0.9-1.6-1.3-2.9c-0.4-1.2-0.8-2-1.2-2.5
	c-0.4-0.5-1.2-0.7-2.4-0.7h-0.6v-2.5h0.7c1.6,0,2.8,0.3,3.6,0.9s1.6,1.7,2.1,3.3c0.1,0.4,0.3,0.8,0.4,1.2c0.1,0.4,0.3,0.7,0.3,0.9
	c0.4,1,0.9,1.8,1.5,2.2c0.6,0.5,1.3,0.7,2.1,0.8v-9.4h2.7v9.4c0.8-0.1,1.6-0.3,2.2-0.8c0.6-0.5,1.1-1.2,1.5-2.3
	c0.2-0.4,0.3-0.8,0.5-1.2c0.1-0.4,0.3-0.7,0.3-1c0.6-1.6,1.3-2.7,2.2-3.3c0.8-0.6,2.1-0.9,3.6-0.9h0.7v2.5h-0.6
	c-1.2,0-2,0.2-2.4,0.7c-0.5,0.5-0.8,1.3-1.2,2.5c-0.4,1.2-0.8,2.2-1.3,2.8c-0.5,0.6-1,1.1-1.6,1.5L64.9,237.1z M66.9,237.1v-20.8h13
	v2.5H69.7v5.7h9.5v2.4h-9.5v7.7h10.2v2.5H66.9z M97,230.7c0,1-0.2,2-0.6,2.7c-0.4,0.8-0.9,1.4-1.6,2c-0.8,0.6-1.6,1-2.5,1.3
	c-0.9,0.3-2.1,0.4-3.5,0.4h-6v-20.8h5.5c1.5,0,2.6,0.1,3.3,0.1c0.7,0.1,1.5,0.3,2.2,0.7c0.7,0.4,1.3,0.9,1.6,1.6s0.5,1.4,0.5,2.3
	c0,1-0.3,1.9-0.8,2.6s-1.2,1.4-2.1,1.8v0.1c1.2,0.3,2.2,0.9,2.9,1.8C96.7,228.3,97,229.4,97,230.7z M93.2,221.4
	c0-0.5-0.1-0.9-0.3-1.3c-0.2-0.4-0.5-0.7-0.8-0.8c-0.4-0.3-0.9-0.4-1.5-0.5c-0.5-0.1-1.3-0.1-2.3-0.1h-2.6v6h3.1
	c0.8,0,1.5-0.1,1.9-0.1c0.4-0.1,0.8-0.3,1.3-0.5c0.4-0.3,0.7-0.6,0.9-1C93.1,222.6,93.2,222,93.2,221.4z M94.1,230.8
	c0-0.8-0.1-1.4-0.3-1.9s-0.7-0.9-1.4-1.3c-0.4-0.2-0.9-0.4-1.4-0.4c-0.5-0.1-1.2-0.1-2.2-0.1h-3.1v7.6h2.2c1.2,0,2.2-0.1,2.9-0.2
	s1.3-0.3,1.8-0.7c0.5-0.4,0.9-0.8,1.1-1.2S94.1,231.6,94.1,230.8z M107.9,237.5c-1.4,0-2.6-0.2-3.7-0.7c-1.1-0.5-2.1-1.2-2.9-2
	c-0.8-0.9-1.5-2-1.9-3.4c-0.5-1.3-0.7-2.9-0.7-4.6c0-1.8,0.2-3.3,0.7-4.6c0.5-1.3,1.1-2.4,1.9-3.4c0.8-0.9,1.8-1.6,2.9-2.1
	c1.1-0.5,2.4-0.7,3.8-0.7c0.7,0,1.4,0.1,2,0.1c0.6,0.1,1.2,0.3,1.7,0.4c0.5,0.1,0.9,0.3,1.4,0.5c0.5,0.2,0.9,0.5,1.4,0.7v3.3h-0.2
	c-0.3-0.2-0.6-0.5-0.9-0.8c-0.4-0.3-0.8-0.6-1.4-0.9c-0.5-0.3-1.1-0.5-1.8-0.7c-0.6-0.2-1.3-0.3-2.2-0.3c-0.9,0-1.7,0.2-2.5,0.5
	c-0.8,0.4-1.5,0.9-2.1,1.6c-0.6,0.7-1,1.6-1.4,2.7c-0.3,1.1-0.5,2.3-0.5,3.6c0,1.4,0.2,2.6,0.5,3.7c0.3,1,0.8,1.9,1.4,2.6
	c0.6,0.7,1.2,1.2,2,1.6c0.8,0.3,1.6,0.5,2.5,0.5c0.8,0,1.5-0.1,2.2-0.3c0.7-0.2,1.3-0.5,1.8-0.7c0.5-0.3,1-0.6,1.3-0.9
	c0.4-0.3,0.7-0.5,0.9-0.8h0.2v3.3c-0.5,0.2-0.9,0.4-1.3,0.6c-0.4,0.2-0.9,0.4-1.5,0.6c-0.6,0.2-1.2,0.3-1.7,0.4
	C109.4,237.4,108.7,237.5,107.9,237.5z M132.3,237.1h-3.5l-7.4-9.5h-1.7v9.5h-2.8v-20.8h2.8v9.4c1.1,0,2-0.3,2.6-0.8
	c0.6-0.5,1.1-1.2,1.5-2.2c0.2-0.4,0.3-0.8,0.5-1.2c0.1-0.4,0.3-0.7,0.3-1c0.6-1.6,1.3-2.7,2.1-3.3c0.9-0.6,2.1-0.9,3.6-0.9h0.8v2.5
	h-0.7c-1.1,0-1.9,0.2-2.4,0.7c-0.5,0.5-0.9,1.3-1.3,2.5c-0.4,1.2-0.8,2.1-1.3,2.7c-0.5,0.6-1,1.1-1.7,1.5L132.3,237.1z M149.1,237.1
	h-2.8v-16.5l-9.3,16.5h-2.8v-20.8h2.8v16.2l9.2-16.2h2.9V237.1z M168.2,237.1h-2.8v-16.5l-9.3,16.5h-2.8v-20.8h2.8v16.2l9.2-16.2
	h2.9V237.1z M166.2,210.1c-0.1,1.4-0.5,2.5-1.3,3.4c-0.8,0.8-2.1,1.3-3.9,1.3c-1.7,0-3-0.4-3.8-1.3s-1.3-2-1.3-3.4h2.5
	c0,1,0.3,1.8,0.7,2.2c0.4,0.5,1.1,0.7,2,0.7c0.9,0,1.6-0.2,2-0.7c0.5-0.5,0.7-1.2,0.7-2.3H166.2z M196.8,237.1h-3.5l-7.3-9.5h-1.7
	v9.5h-2.8v-20.8h2.8v9.4c1.1,0,2-0.3,2.6-0.8c0.7-0.5,1.2-1.2,1.6-2.2c0.2-0.4,0.3-0.8,0.5-1.2c0.1-0.4,0.3-0.7,0.3-1
	c0.5-1.6,1.3-2.7,2.1-3.3c0.9-0.6,2.1-0.9,3.6-0.9h0.9v2.5H195c-1.1,0-1.9,0.2-2.4,0.7c-0.5,0.5-0.9,1.3-1.3,2.5
	c-0.4,1.2-0.8,2.1-1.3,2.7c-0.5,0.6-1,1.1-1.7,1.5L196.8,237.1z M213.3,218.7c0.8,0.9,1.4,2,1.8,3.4c0.5,1.4,0.7,2.9,0.7,4.6
	c0,1.7-0.2,3.2-0.7,4.6s-1,2.5-1.9,3.4c-0.8,1-1.8,1.7-3,2.1c-1.1,0.5-2.4,0.7-3.7,0.7c-1.4,0-2.7-0.3-3.8-0.7
	c-1.1-0.5-2.1-1.2-2.9-2.1c-0.8-0.9-1.4-2.1-1.8-3.4c-0.4-1.4-0.6-2.9-0.6-4.6c0-1.8,0.2-3.3,0.6-4.6c0.5-1.3,1.1-2.4,1.9-3.4
	c0.8-0.9,1.8-1.6,2.9-2.1c1.1-0.5,2.4-0.7,3.8-0.7c1.4,0,2.7,0.3,3.8,0.7C211.6,217.1,212.6,217.8,213.3,218.7z M213,226.7
	c0-1.4-0.2-2.6-0.5-3.7c-0.3-1-0.7-1.9-1.2-2.6c-0.6-0.7-1.2-1.2-2-1.6c-0.8-0.4-1.6-0.5-2.6-0.5c-1,0-1.9,0.2-2.6,0.5
	s-1.4,0.9-2,1.6c-0.6,0.7-1,1.6-1.3,2.7c-0.3,1.1-0.4,2.3-0.4,3.6c0,2.7,0.6,4.8,1.7,6.2c1.2,1.4,2.7,2.2,4.6,2.2s3.5-0.7,4.6-2.2
	C212.4,231.5,213,229.4,213,226.7z M223.7,237.1v-18.3h-7v-2.5h16.7v2.5h-7v18.3H223.7z M235.5,237.1v-20.8h13v2.5h-10.3v5.7h9.5
	v2.4h-9.5v7.7h10.3v2.5H235.5z M266.7,237.1h-2.8v-18.3h-7c0,1-0.1,2.1-0.1,3.1c0,1-0.1,1.9-0.1,2.7c-0.1,2-0.2,3.6-0.3,4.9
	c-0.2,1.3-0.4,2.4-0.7,3.2c-0.3,0.8-0.5,1.5-0.9,2s-0.7,1-1.1,1.3c-0.4,0.4-0.8,0.7-1.3,0.9c-0.5,0.2-1,0.3-1.7,0.3
	c-0.2,0-0.4,0-0.6,0c-0.2,0-0.3,0-0.5,0v-2.7h0.2c0.1,0,0.2,0,0.2,0c0.1,0,0.2,0,0.3,0c0.3,0,0.6-0.1,0.9-0.2
	c0.3-0.1,0.5-0.3,0.7-0.5c0.6-0.6,1.1-1.8,1.4-3.3c0.3-1.6,0.5-3.7,0.6-6.4c0.1-0.9,0.1-2.1,0.1-3.6c0-1.5,0.1-2.9,0.1-4.1h12.4
	V237.1z M285,230.7c0,1-0.2,1.9-0.6,2.7c-0.4,0.8-0.9,1.5-1.6,2c-0.8,0.6-1.6,1-2.5,1.3c-0.9,0.3-2,0.4-3.5,0.4h-5.9v-20.8h2.8v8.2
	h3.2c1.4,0,2.5,0.1,3.5,0.2c0.9,0.2,1.7,0.6,2.5,1.2c0.7,0.6,1.2,1.2,1.6,2C284.8,228.7,285,229.6,285,230.7z M282.1,230.7
	c0-0.7-0.1-1.3-0.3-1.8c-0.2-0.5-0.6-0.9-1.1-1.3c-0.5-0.3-1.1-0.5-1.8-0.6c-0.7-0.1-1.6-0.1-2.8-0.1h-2.3v7.8h2.3
	c1.2,0,2.2-0.1,2.9-0.2c0.7-0.1,1.2-0.4,1.7-0.7c0.5-0.4,0.9-0.8,1.1-1.3C282,232.1,282.1,231.5,282.1,230.7z M302.7,237.1h-2.8
	v-10.2h-9.5v10.2h-2.8v-20.8h2.8v8.2h9.5v-8.2h2.8V237.1z M320.6,230.7c0,1-0.2,1.9-0.6,2.7c-0.4,0.8-0.9,1.5-1.6,2
	c-0.8,0.6-1.6,1-2.5,1.3c-0.9,0.3-2,0.4-3.5,0.4h-5.6v-20.8h2.8v8.2h2.9c1.4,0,2.6,0.1,3.5,0.2c0.9,0.2,1.8,0.6,2.5,1.2
	c0.7,0.6,1.2,1.2,1.6,2C320.4,228.7,320.6,229.6,320.6,230.7z M317.7,230.7c0-0.7-0.1-1.3-0.3-1.8c-0.2-0.5-0.6-0.9-1.1-1.3
	c-0.5-0.3-1.1-0.5-1.8-0.6c-0.7-0.1-1.6-0.1-2.8-0.1h-2v7.8h1.9c1.2,0,2.2-0.1,2.9-0.2c0.7-0.1,1.2-0.4,1.8-0.7
	c0.5-0.4,0.9-0.8,1.1-1.3C317.6,232.1,317.7,231.5,317.7,230.7z M325.2,237.1h-2.8v-20.8h2.8V237.1z M344.4,237.1h-2.8v-16.5
	l-9.3,16.5h-2.8v-20.8h2.8v16.2l9.2-16.2h2.9V237.1z M342.4,210.1c-0.1,1.4-0.5,2.5-1.3,3.4s-2.1,1.3-3.9,1.3c-1.7,0-3-0.4-3.8-1.3
	s-1.3-2-1.3-3.4h2.5c0,1,0.3,1.8,0.7,2.2c0.4,0.5,1.1,0.7,2,0.7c0.9,0,1.6-0.2,2-0.7c0.5-0.5,0.7-1.2,0.7-2.3H342.4z M368.3,227.1
	c0.5,0.4,0.8,0.9,1.2,1.5c0.3,0.6,0.5,1.4,0.5,2.3c0,0.9-0.2,1.8-0.6,2.6c-0.4,0.8-0.9,1.5-1.5,2.1c-0.7,0.6-1.5,1.1-2.5,1.4
	c-1,0.3-2.1,0.5-3.3,0.5c-1.3,0-2.5-0.1-3.6-0.4c-1.1-0.3-2-0.5-2.6-0.8v-3.1h0.2c0.8,0.5,1.7,0.9,2.7,1.3c1,0.4,2.1,0.6,3.2,0.6
	c0.7,0,1.4-0.1,2-0.3c0.7-0.2,1.2-0.5,1.7-0.9c0.5-0.4,0.8-0.8,1-1.3c0.2-0.5,0.3-1.1,0.3-1.8c0-0.7-0.1-1.3-0.4-1.8
	c-0.3-0.5-0.6-0.9-1.1-1.2c-0.5-0.3-1-0.5-1.6-0.6c-0.7-0.1-1.3-0.2-2.1-0.2h-2.2v-2.3h1.9c1.5,0,2.6-0.3,3.5-0.9
	c0.9-0.6,1.3-1.5,1.3-2.6c0-0.5-0.1-1-0.3-1.3c-0.2-0.4-0.5-0.7-0.9-0.9c-0.5-0.3-0.9-0.4-1.4-0.5c-0.5-0.1-1-0.1-1.6-0.1
	c-0.6,0-1.2,0.1-1.8,0.2c-0.6,0.1-1.1,0.3-1.6,0.5c-0.5,0.2-0.9,0.4-1.3,0.6c-0.3,0.2-0.7,0.4-0.9,0.5h-0.2v-3.1
	c0.6-0.3,1.5-0.6,2.6-0.8c1.1-0.3,2.2-0.4,3.2-0.4c1,0,2,0.1,2.7,0.3c0.8,0.2,1.5,0.5,2.1,0.9c0.7,0.5,1.2,1,1.6,1.6
	c0.3,0.6,0.5,1.4,0.5,2.2c0,1.1-0.4,2.1-1.1,2.9c-0.7,0.8-1.7,1.4-2.9,1.6v0.2c0.5,0.1,1,0.2,1.5,0.5
	C367.3,226.4,367.8,226.7,368.3,227.1z M370.5,237.1l7-20.8h3.4l7,20.8H385l-1.9-5.8h-8l-1.9,5.8H370.5z M382.3,228.9l-3.2-9.8
	l-3.2,9.8H382.3z M404,230.7c0,1-0.2,2-0.6,2.7c-0.4,0.8-0.9,1.4-1.6,2c-0.8,0.6-1.6,1-2.5,1.3c-0.9,0.3-2,0.4-3.5,0.4h-5.9v-20.8
	h5.5c1.5,0,2.6,0.1,3.3,0.1c0.7,0.1,1.4,0.3,2.1,0.7c0.7,0.4,1.3,0.9,1.6,1.6s0.5,1.4,0.5,2.3c0,1-0.3,1.9-0.8,2.6
	c-0.5,0.8-1.2,1.4-2.2,1.8v0.1c1.2,0.3,2.2,0.9,2.9,1.8C403.6,228.3,404,229.4,404,230.7z M400.1,221.4c0-0.5-0.1-0.9-0.3-1.3
	c-0.2-0.4-0.4-0.7-0.8-0.8c-0.5-0.3-1-0.4-1.5-0.5s-1.3-0.1-2.3-0.1h-2.6v6h3.1c0.9,0,1.5-0.1,1.9-0.1c0.4-0.1,0.8-0.3,1.2-0.5
	c0.4-0.3,0.7-0.6,0.9-1C400.1,222.6,400.1,222,400.1,221.4z M401.1,230.8c0-0.8-0.1-1.4-0.3-1.9c-0.2-0.5-0.7-0.9-1.4-1.3
	c-0.4-0.2-0.9-0.4-1.4-0.4c-0.5-0.1-1.2-0.1-2.2-0.1h-3.1v7.6h2.2c1.2,0,2.2-0.1,2.8-0.2c0.7-0.1,1.3-0.3,1.8-0.7
	c0.5-0.4,0.9-0.8,1.2-1.2C401,232.2,401.1,231.6,401.1,230.8z M421.5,218.7c0.8,0.9,1.4,2,1.8,3.4c0.4,1.4,0.7,2.9,0.7,4.6
	c0,1.7-0.2,3.2-0.7,4.6c-0.4,1.4-1,2.5-1.8,3.4c-0.8,1-1.8,1.7-3,2.1c-1.1,0.5-2.4,0.7-3.7,0.7c-1.4,0-2.7-0.3-3.8-0.7
	c-1.1-0.5-2.1-1.2-2.9-2.1c-0.8-0.9-1.4-2.1-1.8-3.4c-0.4-1.4-0.7-2.9-0.7-4.6c0-1.8,0.2-3.3,0.7-4.6c0.4-1.3,1-2.4,1.8-3.4
	c0.8-0.9,1.8-1.6,2.9-2.1c1.1-0.5,2.4-0.7,3.8-0.7c1.4,0,2.7,0.3,3.8,0.7C419.7,217.1,420.7,217.8,421.5,218.7z M421.1,226.7
	c0-1.4-0.1-2.6-0.5-3.7c-0.3-1-0.7-1.9-1.2-2.6c-0.5-0.7-1.2-1.2-2-1.6c-0.8-0.4-1.6-0.5-2.6-0.5c-1,0-1.9,0.2-2.6,0.5
	c-0.7,0.3-1.4,0.9-2,1.6c-0.5,0.7-1,1.6-1.3,2.7c-0.3,1.1-0.4,2.3-0.4,3.6c0,2.7,0.6,4.8,1.7,6.2c1.1,1.4,2.7,2.2,4.6,2.2
	c1.9,0,3.5-0.7,4.6-2.2C420.5,231.5,421.1,229.4,421.1,226.7z M443.8,241.8h-2.6v-4.8h-13.5v4.8h-2.6v-7.2h1.1
	c1.2-2,2.2-4.6,2.9-7.8c0.7-3.2,1.1-6.7,1.1-10.5h11.6v18.3h2V241.8z M439.1,234.7v-15.9h-6.2c-0.1,3.3-0.5,6.4-1.2,9.1
	c-0.7,2.7-1.6,5-2.7,6.8H439.1z"/>
</svg>
